# xmcd
#
# Track frame offsets: 
#        150
#        18845
#        42392
#        59887
#        74240
#        95272
#        112160
#        128850
#        142520
#        154545
#        169445
#
# Disc length: 2470 seconds
#
# Revision: 16
# Processed by: cddbd v1.5.2PL0 Copyright (c) Steve Scherf et al.
# Submitted via: ExactAudioCopy v0.99pb5
#
DISCID=9e09a40b
DTITLE=Tom Petty And The Heartbreakers - "Let Me Up (I've Had Enough)"
DYEAR=1987
DGENRE=Rock
TTITLE0=Jammin' Me
TTITLE1=Runaway Trains
TTITLE2=The Damage You've Done
TTITLE3=It'll All Work Out
TTITLE4=My Life/Your World
TTITLE5=Think About Me
TTITLE6=All Mixed Up
TTITLE7=A Self-Made Man
TTITLE8=Ain't Love Strange
TTITLE9=How Many More Days
TTITLE10=Let Me Up (I've Had Enough)
EXTD=YEAR: 1987
EXTT0=
EXTT1=
EXTT2=
EXTT3=
EXTT4=
EXTT5=
EXTT6=
EXTT7=
EXTT8=
EXTT9=
EXTT10=
PLAYORDER=
